<svg width="89" height="120" viewBox="0 0 89 120" fill="none" xmlns="http://www.w3.org/2000/svg">
<circle cx="44.8277" cy="63.7779" r="22.3463" fill="#1D588F"/>
<path d="M10.0188 119.384H82.7541C82.7541 119.384 84.3718 89.2422 46.3865 89.2422C8.40113 89.2422 10.0188 119.384 10.0188 119.384Z" fill="#1D588F"/>
<path d="M44.2653 40.6801L26.5672 34.2822C26.1901 34.1459 25.792 34.4252 25.792 34.8262V47.0512C25.792 47.2814 25.9285 47.4897 26.1396 47.5816L44.2294 55.4578C44.3776 55.5223 44.5462 55.5219 44.6941 55.4565L62.5204 47.5792C62.726 47.4884 62.8604 47.2867 62.865 47.0619L63.1148 34.8443C63.1231 34.4383 62.7216 34.1503 62.3397 34.2884L44.6587 40.6801C44.5316 40.7261 44.3924 40.7261 44.2653 40.6801Z" fill="#262626" stroke="#262626" stroke-width="0.578513"/>
<path d="M15.9391 26.803L44.1908 37.1741C44.3656 37.2382 44.5575 37.2382 44.7323 37.1741L72.9841 26.803L87.2556 20.7535C87.8885 20.4853 87.896 19.5909 87.2676 19.3121L44.7802 0.459745C44.5773 0.36972 44.3458 0.36972 44.1429 0.459745L1.65554 19.3121C1.02718 19.5909 1.03465 20.4853 1.66757 20.7535L15.9391 26.803Z" fill="#262626" stroke="#262626" stroke-width="0.785634"/>
<rect x="80.4541" y="21.4902" width="3.46454" height="19.6324" fill="#262626"/>
<ellipse cx="81.9946" cy="42.4711" rx="3.07959" ry="2.88712" fill="#262626"/>
<path d="M81.5079 44.595C81.5477 44.3684 81.7446 44.2031 81.9747 44.2031H82.398C82.628 44.2031 82.8249 44.3684 82.8647 44.595L85.7455 60.9697C85.7965 61.2599 85.5733 61.5258 85.2787 61.5258H79.0939C78.7993 61.5258 78.5761 61.2599 78.6271 60.9697L81.5079 44.595Z" fill="#262626"/>
</svg>
